HIERARCHY
ROOT Hips
{
	OFFSET -3.958830 18.904000 13.208200
	CHANNELS 6 Xposition Yposition Zposition Zrotation Yrotation Xrotation 
	JOINT LHipJoint
	{
		OFFSET 0.000000 0.000000 0.000000
		CHANNELS 3 Zrotation Yrotation Xrotation
		JOINT LeftUpLeg
		{
			OFFSET 1.800000 -1.400000 0.085000
			CHANNELS 3 Zrotation Yrotation Xrotation
			JOINT LeftLeg
			{
				OFFSET 2.215000 -6.000000 0.000000
				CHANNELS 3 Zrotation Yrotation Xrotation
				JOINT LeftFoot
				{
					OFFSET 2.500000 -6.900000 0.000000
					CHANNELS 3 Zrotation Yrotation Xrotation
					JOINT LeftToeBase
					{
						OFFSET 0.200000 -0.500000 1.950000
						CHANNELS 3 Zrotation Yrotation Xrotation
						End Site
						{
							OFFSET 0.000000 0.000000 0.000000
						}
					}
				}
			}
		}
	}
	JOINT RHipJoint
	{
		OFFSET 0.000000 0.000000 0.000000
		CHANNELS 3 Zrotation Yrotation Xrotation
		JOINT RightUpLeg
		{
			OFFSET -1.800000 -1.400000 0.085000
			CHANNELS 3 Zrotation Yrotation Xrotation
			JOINT RightLeg
			{
				OFFSET -2.215000 -6.000000 0.000000
				CHANNELS 3 Zrotation Yrotation Xrotation
				JOINT RightFoot
				{
					OFFSET -2.500000 -6.900000 0.000000
					CHANNELS 3 Zrotation Yrotation Xrotation
					JOINT RightToeBase
					{
						OFFSET -0.200000 -0.500000 1.950000
						CHANNELS 3 Zrotation Yrotation Xrotation
						End Site
						{
							OFFSET 0.000000 0.000000 0.000000
						}
					}
				}
			}
		}
	}
	JOINT LowerBack
	{
		OFFSET 0.000000 0.000000 0.000000
		CHANNELS 3 Zrotation Yrotation Xrotation
		JOINT Spine
		{
			OFFSET -0.087000 1.940000 -0.288900
			CHANNELS 3 Zrotation Yrotation Xrotation
			JOINT Spine1
			{
				OFFSET 0.000000 1.950000 0.060000
				CHANNELS 3 Zrotation Yrotation Xrotation
				JOINT Neck
				{
					OFFSET 0.000000 0.000000 0.000000
					CHANNELS 3 Zrotation Yrotation Xrotation
					JOINT Neck1
					{
						OFFSET 0.000000 1.600000 0.340000
						CHANNELS 3 Zrotation Yrotation Xrotation
						JOINT Head
						{
							OFFSET 0.000000 1.667000 -0.240000
							CHANNELS 3 Zrotation Yrotation Xrotation
							End Site
							{
								OFFSET 0.000000 0.000000 0.000000
							}
						}
					}
				}
				JOINT LeftShoulder
				{
					OFFSET 0.000000 0.000000 0.000000
					CHANNELS 3 Zrotation Yrotation Xrotation
					JOINT LeftArm
					{
						OFFSET 2.700000 1.550000 -0.730000
						CHANNELS 3 Zrotation Yrotation Xrotation
						JOINT LeftForeArm
						{
							OFFSET 5.450000 0.000000 0.000000
							CHANNELS 3 Zrotation Yrotation Xrotation
							JOINT LeftHand
							{
								OFFSET 3.450000 0.000000 0.000000
								CHANNELS 3 Zrotation Yrotation Xrotation
								JOINT LeftHandIndex1
								{
									OFFSET 0.750000 0.000000 0.000000
									CHANNELS 3 Zrotation Yrotation Xrotation
									End Site
									{
										OFFSET 0.000000 0.000000 0.000000
									}
								}
							}
						}
					}
				}
				JOINT RightShoulder
				{
					OFFSET 0.000000 0.000000 0.000000
					CHANNELS 3 Zrotation Yrotation Xrotation
					JOINT RightArm
					{
						OFFSET -2.700000 1.550000 -0.730000
						CHANNELS 3 Zrotation Yrotation Xrotation
						JOINT RightForeArm
						{
							OFFSET -5.450000 0.000000 0.000000
							CHANNELS 3 Zrotation Yrotation Xrotation
							JOINT RightHand
							{
								OFFSET -3.450000 0.000000 0.000000
								CHANNELS 3 Zrotation Yrotation Xrotation
								JOINT RightHandIndex1
								{
									OFFSET -0.750000 0.000000 0.000000
									CHANNELS 3 Zrotation Yrotation Xrotation
									End Site
									{
										OFFSET 0.000000 0.000000 0.000000
									}
								}
							}
						}
					}
				}
			}
		}
	}
}
MOTION
Frames: 14
Frame Time: 0.016667
0.749780 16.105530 -0.484800 -8.046147 -15.101538 7.352379 -15.137203 12.662139 2.452954 1.780833 -3.213251 4.817798 -9.101735 11.571636 34.899314 0.486369 8.282962 1.889292 0.628580 0.232410 0.665230 18.713115 -8.309931 5.134405 6.887438 12.909228 -51.924794 10.010544 -12.353816 47.103818 -1.020592 -7.010746 1.930740 0.179360 0.048470 0.301510 -4.354026 -3.366425 -8.047929 24.832551 -14.597382 25.658618 -7.589918 -10.332173 1.879963 0.204090 -8.086820 -6.317212 -16.221586 10.134946 25.037383 -12.159210 12.667570 -12.691590 -6.081910 8.698012 -3.045217 -10.152952 4.707298 -4.745571 76.353600 -85.149648 -62.033565 -3.111894 0.468522 0.503480 0.154170 0.036360 0.181460 5.513961 -8.072505 4.794789 36.077284 -15.172495 -7.968629 88.928333 52.115362 38.926618 1.806764 -2.406648 -0.135060 0.032370 -0.213660 -0.363300 
0.780430 15.895450 -0.502930 -8.211149 -15.917819 5.115967 -15.175034 12.573368 2.473743 2.103456 -3.169729 7.753704 -9.438040 12.411022 36.301913 0.628692 8.731255 1.728982 0.637520 0.230190 0.720790 18.694989 -8.153602 5.310134 5.853080 13.971880 -52.689812 11.682584 -14.560599 52.071752 -1.352133 -8.229177 1.549443 0.148530 -0.040270 0.317270 -4.288384 -3.384874 -8.262435 24.566606 -14.954679 29.583808 -7.931925 -10.160416 3.137093 1.245869 -7.705043 -7.168478 -15.691153 9.538765 26.306455 -14.442010 13.037060 -14.861650 -6.543034 7.065576 -2.382607 -4.380294 6.779625 -3.682519 40.919418 -82.139356 -33.065975 -3.567593 3.067693 0.564100 0.103700 0.110010 0.153700 4.144496 -6.523593 5.896686 35.302341 -17.133100 -8.642124 98.113136 53.691970 45.582339 1.834124 -2.370052 -0.111290 0.004030 -0.226420 -0.393110 
0.803300 15.698620 -0.520670 -7.530843 -17.029141 3.086284 -15.243838 12.448611 2.536298 1.228936 -2.926966 9.938295 -9.929925 13.350529 38.132009 0.790280 9.201391 1.571780 0.644610 0.245630 0.733340 18.667678 -7.891738 5.525286 3.706726 15.060021 -54.632723 13.346098 -16.997278 57.599249 -1.704159 -9.619402 1.135578 0.140160 -0.080080 0.321290 -4.184459 -3.532633 -8.489491 22.849117 -14.416177 33.310317 -7.276585 -9.654054 3.732955 1.434251 -7.526559 -7.929044 -15.348946 9.433919 26.427960 -14.587420 12.875530 -16.008600 -6.141518 6.345765 -1.853586 -0.009884 7.970999 -2.065588 17.312884 -78.630828 -13.593572 -3.646415 3.472023 0.586800 0.072510 0.146930 0.141030 3.511978 -5.511144 6.672376 33.696797 -19.791558 -8.972093 106.574963 53.706914 51.330535 1.840583 -2.352743 -0.091040 -0.004550 -0.228480 -0.395030 
0.811310 15.555540 -0.531690 -6.220335 -17.931694 0.936594 -15.344622 12.441811 2.663907 -0.200676 -2.461974 11.782817 -10.266184 14.119296 39.686904 0.966726 9.558381 1.457514 0.668180 0.274210 0.767570 18.594269 -7.643004 5.627196 1.634355 15.538027 -55.354071 14.676909 -18.706769 61.091549 -1.962871 -10.517313 0.888428 0.120230 -0.140290 0.331860 -3.951807 -3.914907 -8.693324 19.846834 -13.057775 36.212918 -5.661623 -9.060524 5.135935 1.615753 -7.122410 -8.767818 -14.890304 9.344581 27.658728 -15.259100 12.967220 -17.436380 -6.120619 4.904845 -1.112093 2.708778 9.666885 -1.467821 -0.116914 -76.048544 -0.696508 -3.619332 3.599040 0.613660 0.027030 0.205370 0.137410 3.234466 -3.772550 7.381667 32.908960 -21.209478 -9.748714 112.245727 53.792916 55.348898 1.878450 -2.315340 -0.050060 -0.025940 -0.254530 -0.393260 
0.821220 15.461980 -0.521620 -5.964897 -17.503421 0.430291 -15.392290 12.460788 2.673673 -0.564798 -2.465783 12.315733 -9.877144 14.282871 40.884175 1.032508 9.746665 1.393547 0.640030 0.237410 0.729400 18.561291 -7.484448 5.693282 -0.067527 15.534216 -56.285884 17.027094 -20.649350 62.135165 -2.110840 -11.130198 0.729252 0.085980 -0.132360 0.347970 -3.837539 -4.183850 -8.763906 19.295622 -12.862909 36.575225 -4.658155 -9.054051 5.782642 1.676657 -7.293571 -9.586601 -15.374144 9.730764 27.932140 -14.958340 12.940200 -16.814100 -6.133229 3.767982 -0.127584 2.981872 11.272660 -1.136129 -14.200654 -74.819804 8.897105 -3.631298 3.674069 0.613650 0.029260 0.196370 0.128030 3.237050 -2.264073 7.831920 31.880827 -21.676132 -10.009834 114.258248 53.556853 56.456076 1.889318 -2.293646 -0.036230 -0.047610 -0.225090 -0.386110 
0.829910 15.447290 -0.520850 -6.330760 -17.308331 0.462786 -15.409406 12.516028 2.651577 -0.343377 -2.258987 12.621502 -9.661851 14.156338 40.415567 1.027531 9.671116 1.420565 0.618220 0.207620 0.696080 18.544564 -7.415764 5.720275 -0.652724 15.668641 -56.228191 18.696166 -21.510152 61.560363 -2.151140 -11.232519 0.715341 0.059970 -0.126730 0.329930 -3.785523 -4.349722 -8.775270 19.462318 -12.831218 36.451217 -3.754671 -8.999948 6.338331 1.582706 -7.791092 -10.431752 -16.662133 10.183746 28.508417 -13.878000 12.352660 -16.687990 -5.897023 2.703659 1.102702 0.702320 12.726810 -1.631966 -26.255988 -74.660167 16.869166 -3.595553 3.682145 0.633600 0.002620 0.190260 0.124670 3.281663 -0.596227 8.018340 32.126668 -20.228854 -10.448775 112.551238 53.440497 54.504039 1.929189 -2.240723 -0.040970 -0.034230 -0.204970 -0.377240 
0.836680 15.513830 -0.504200 -7.022166 -17.229947 0.760963 -15.406749 12.648572 2.621555 0.402922 -1.909270 12.948997 -9.238726 13.696278 38.798619 1.013643 9.383250 1.511522 0.606780 0.197580 0.684310 18.524237 -7.463618 5.668334 -0.118540 15.642537 -54.851881 19.334259 -21.160674 59.572457 -2.072054 -10.864735 0.831523 0.025980 -0.134330 0.336790 -3.739706 -4.465590 -8.737971 19.986517 -12.815434 35.923762 -3.298408 -8.841557 6.295555 1.745720 -7.865174 -10.848038 -17.036252 10.253971 29.261892 -13.717560 12.301160 -16.168870 -5.866389 2.210077 1.938985 -2.114240 12.743585 -2.064019 -42.552977 -74.340219 28.137654 -3.598966 3.695650 0.613100 -0.004570 0.192890 0.119100 2.947674 0.161119 7.860367 33.513051 -17.879387 -10.706433 108.256492 53.250785 50.713700 1.970285 -2.228456 -0.006100 -0.058850 -0.205090 -0.360150 
0.829880 15.631270 -0.479230 -7.172926 -17.021278 1.690845 -15.402819 12.808200 2.600266 0.954016 -1.425895 12.526251 -8.810161 13.061437 36.611385 0.958444 8.998014 1.657563 0.541560 0.131820 0.627650 18.500043 -7.549877 5.605485 0.727545 15.503190 -53.461579 18.341705 -19.505237 57.034187 -1.861317 -10.131092 1.053903 -0.023100 -0.086950 0.335550 -3.676869 -4.567636 -8.697467 19.913612 -12.387225 34.649395 -2.905950 -8.393218 5.409539 1.947757 -7.622542 -11.055982 -16.514720 9.942341 29.558329 -13.536320 12.409400 -14.581050 -6.664464 1.742104 2.572093 -4.841407 12.887546 -2.335736 -59.560242 -73.142602 39.764493 -3.673314 3.635318 0.583740 0.023700 0.162680 0.118410 3.345115 0.789370 7.627736 35.546110 -15.682773 -11.010067 100.976218 53.089283 45.174036 2.005444 -2.195846 -0.010980 -0.058530 -0.179370 -0.339180 
0.814040 15.794130 -0.432570 -7.183823 -16.199072 2.942043 -15.399216 13.051172 2.586465 1.414170 -1.171751 11.397419 -7.739147 12.151882 34.858106 0.890041 8.584670 1.832178 0.472610 0.043630 0.587470 18.459794 -7.697456 5.467651 2.208660 14.907675 -51.457696 15.986941 -16.869623 53.529740 -1.542340 -9.014980 1.403303 -0.078420 -0.016610 0.336510 -3.573518 -4.750713 -8.622584 19.557773 -11.863130 32.197014 -2.087179 -8.027332 4.248533 2.119644 -7.026630 -10.961214 -15.418197 9.524626 30.379734 -13.435120 12.868350 -11.635550 -7.522853 1.587947 2.933943 -8.620549 12.015108 -2.639962 -72.926420 -68.867357 46.806478 -3.729036 3.629592 0.542330 0.075990 0.116620 0.127270 3.852735 0.758585 7.133623 37.948470 -13.476442 -11.182244 91.374611 52.233463 38.411682 2.020979 -2.172785 -0.028300 -0.054050 -0.163950 -0.323620 
0.806200 15.987980 -0.373370 -7.325121 -16.034539 4.830309 -15.350144 13.180824 2.549526 1.425770 -0.742432 9.598243 -6.821456 11.197213 32.669817 0.781640 8.049137 2.022620 0.398280 -0.053750 0.528250 18.472254 -7.897459 5.369442 3.873771 14.664351 -49.542494 13.528312 -14.003709 49.298261 -1.186375 -7.754116 1.782605 -0.126250 0.036180 0.337170 -3.631950 -4.624805 -8.503449 20.283033 -11.338946 28.811997 -2.290425 -7.440851 3.030164 2.216286 -6.823188 -10.951341 -15.043483 9.418553 30.662633 -12.715580 13.119580 -7.863640 -8.237917 1.503308 3.297280 -13.452267 10.639057 -2.968725 -77.513168 -62.815550 45.526975 -3.710794 3.736827 0.495680 0.117020 0.056020 0.121810 4.345190 0.844531 6.744597 41.989192 -11.531980 -11.676398 80.076632 50.722267 31.155366 2.044337 -2.155977 -0.045860 -0.087430 -0.137840 -0.311480 
0.788420 16.212840 -0.314820 -6.845298 -15.882728 6.210099 -15.301918 13.338733 2.569797 0.897382 -0.290989 7.764179 -5.880784 10.335616 30.988056 0.666238 7.569190 2.198338 0.334820 -0.130920 0.448270 18.471529 -8.151294 5.184827 5.554782 13.941088 -46.724180 10.603061 -10.899364 44.120236 -0.811659 -6.305079 2.274787 -0.158250 0.099440 0.308770 -3.665812 -4.525592 -8.367393 20.101194 -10.536324 25.990818 -2.215661 -6.802363 1.430963 1.973440 -6.978386 -10.811868 -15.523235 9.608419 30.907898 -11.140820 12.593750 -5.057250 -9.052295 1.827925 3.457998 -18.996225 9.239442 -3.315823 -76.818486 -55.653928 39.195003 -3.675954 3.753724 0.476720 0.142700 -0.005960 0.133420 5.647080 0.797850 6.238652 46.600859 -10.117667 -12.656599 67.083313 48.237865 23.431075 2.054534 -2.060176 -0.082270 -0.074270 -0.107760 -0.296230 
0.777060 16.453990 -0.273990 -5.152242 -15.379588 7.121355 -15.291593 13.553379 2.691985 -0.657956 -0.054000 5.183107 -5.000789 9.638489 30.767245 0.610339 7.184599 2.315727 0.345950 -0.120460 0.440200 18.415312 -8.453281 4.874925 6.178939 12.224196 -43.976480 7.508637 -8.066455 38.359588 -0.499584 -4.853351 2.769378 -0.167150 0.093230 0.302870 -3.553114 -4.572174 -8.260915 17.669902 -9.334295 23.380462 -0.894531 -6.341127 0.548507 1.597437 -7.049589 -10.603450 -16.027351 9.521347 31.711143 -10.154760 11.744700 -4.439220 -10.310560 1.622421 3.570095 -25.767927 7.639601 -4.288514 -70.901808 -48.737114 29.927014 -3.613784 3.713588 0.470850 0.123930 -0.002300 0.147590 7.710354 1.388144 5.722673 50.311673 -8.382466 -13.723042 54.290048 45.615660 16.668740 2.101813 -1.938805 -0.062210 -0.081350 -0.123860 -0.278380 
0.773030 16.678880 -0.238770 -3.432540 -14.833115 8.328765 -15.264625 13.650039 2.794719 -2.635667 -0.181811 1.625507 -3.854821 9.101336 32.417581 0.610184 6.976006 2.380038 0.337830 -0.097440 0.398660 18.386998 -8.778562 4.583042 6.091870 10.604173 -41.954582 5.134721 -6.120091 33.332028 -0.264862 -3.786286 3.170730 -0.167440 0.126230 0.282940 -3.520216 -4.393990 -8.135691 15.358997 -8.192326 20.212734 0.103650 -5.954899 -0.244892 1.015881 -6.981916 -10.114195 -15.957504 9.606118 32.032604 -8.720140 11.079160 -3.128360 -11.230360 1.733611 3.564546 -33.252203 5.975722 -5.179590 -62.561932 -41.689429 20.815576 -3.606645 3.633250 0.416010 0.138070 -0.022070 0.172170 9.797640 1.490832 4.854279 53.927963 -6.080659 -14.105873 40.914659 41.381200 10.268496 2.158502 -1.788240 -0.041690 -0.066270 -0.135550 -0.237050 
0.767740 16.870850 -0.205690 -1.423279 -14.333546 9.091715 -15.287688 13.702154 2.967386 -4.461882 -0.827398 -2.056626 -3.367936 9.194150 35.859304 0.643748 7.237144 2.287673 0.303960 -0.145510 0.347030 18.315612 -9.056816 4.270630 5.283133 9.054453 -39.954085 3.199966 -4.938863 30.102836 -0.121646 -3.202054 3.385487 -0.180720 0.178320 0.275610 -3.353871 -4.273155 -8.089828 11.881035 -6.756319 17.659112 1.591489 -5.218295 -1.094871 0.494149 -6.618138 -9.793736 -15.305807 9.425275 32.657228 -6.501220 9.848370 -1.278340 -12.180489 1.412313 3.573699 -40.614513 4.633734 -6.058027 -52.936658 -34.365715 12.792773 -3.633228 3.518456 0.409710 0.153910 -0.060890 0.181390 11.925601 1.999257 4.360798 56.697617 -4.773823 -14.344429 30.420295 36.718511 5.745317 2.194558 -1.642423 -0.066160 -0.053100 -0.110250 -0.223310 
